<svg xmlns="http://www.w3.org/2000/svg" xmlns:xlink="http://www.w3.org/1999/xlink" viewBox="0 0 599.28 235.59"><defs><style>.cls-1{fill:url(#linear-gradient);}.cls-2,.cls-3,.cls-7{stroke:#231f20;}.cls-2,.cls-3,.cls-6,.cls-7{stroke-miterlimit:10;}.cls-2,.cls-3{stroke-width:4px;}.cls-2{fill:url(#linear-gradient-2);}.cls-3{fill:none;}.cls-4{fill:url(#radial-gradient);}.cls-5,.cls-6{fill:#603913;}.cls-6{stroke:#603913;}.cls-7{fill:#009444;}.cls-8{font-size:84px;fill:#fff;font-family:AudacityScriptDEMO, Audacity Script DEMO;}</style><linearGradient id="linear-gradient" x1="12.69" y1="328.94" x2="600.49" y2="328.94" gradientUnits="userSpaceOnUse"><stop offset="0" stop-color="#fefad6"/><stop offset="0.01" stop-color="#fefad3"/><stop offset="0.39" stop-color="#feec57"/><stop offset="0.55" stop-color="#fee725"/><stop offset="0.9" stop-color="#fee72d"/><stop offset="1" stop-color="#fee96a"/></linearGradient><linearGradient id="linear-gradient-2" x1="0.01" y1="220.71" x2="595.28" y2="220.71" gradientUnits="userSpaceOnUse"><stop offset="0" stop-color="#1c75bc"/><stop offset="1" stop-color="#27aae1"/></linearGradient><radialGradient id="radial-gradient" cx="156.13" cy="216.72" r="36.4" gradientTransform="translate(2 -59.81) scale(1 0.51)" gradientUnits="userSpaceOnUse"><stop offset="0.09" stop-color="#f7941d"/><stop offset="0.27" stop-color="#f7971e"/><stop offset="0.37" stop-color="#f79b1f"/><stop offset="1" stop-color="#f9ed32"/></radialGradient></defs><g id="Layer_2" data-name="Layer 2"><path class="cls-1" d="M306.59,305.8c-86.19,0-163.71,5.14-217.47,13.32a49.24,49.24,0,0,1,15.44,3.45c2.48,1.06,4.84,2.19,7.14,3.35.82.27,1.71.5,2.46.82a17.91,17.91,0,0,1,2.43,1.11,35.71,35.71,0,0,1,6.8,1.95,7.23,7.23,0,0,1,.88.41c.42.09.85.17,1.26.27,2.13.55,4.37,1,6.65,1.46a46.37,46.37,0,0,1,4.49,1.34,41.67,41.67,0,0,1,6.16,1.54c.39.11.76.23,1.16.32,1.17.28,2.27.57,3.32.89,11.23.23,50.58,8.52,57.75,11a84.22,84.22,0,0,1,21.64,1c3.33.62,6.68,1.2,10.05,1.78.6,0,1.18,0,1.8,0a71.15,71.15,0,0,1,15.88,1.6,75.51,75.51,0,0,1,13.75.7c14.4-1.3,29-.63,47.24-.55,11.68.05,22-.62,32.09-1.06,6.31-.95,12.71-1.77,18.94-2.52a70.83,70.83,0,0,1,9.71-.51,66.64,66.64,0,0,1,7.47-.89,72.8,72.8,0,0,1,14.79-1.37c.8,0,1.56,0,2.33,0,28.1-7.35,58-13.42,87.1-20.12l3.9-.94a31.61,31.61,0,0,1,8.65-3.3,9.21,9.21,0,0,1,3.78-4.46C452,309.82,382.7,305.8,306.59,305.8Z" transform="translate(2 -118.65)"/><path class="cls-2" d="M95.42,320.77a313.16,313.16,0,0,1,46.6-3.39c7.77,0,15.36.27,22.7.78,22.1-6.78,58.25-11.22,99.2-11.22,41.58,0,78.26,4.57,100.26,11.53,21.19-3.62,47.1-5.78,75.19-5.78a469.78,469.78,0,0,1,69.26,4.82c53.54-20.87,86.65-49.64,86.65-81.42,0-63.75-133.26-115.44-297.64-115.44S0,172.34,0,236.09C0,269.56,36.77,299.69,95.42,320.77Z" transform="translate(2 -118.65)"/><ellipse class="cls-3" cx="299.64" cy="118.14" rx="297.64" ry="115.45"/></g><g id="Layer_1" data-name="Layer 1"><ellipse class="cls-4" cx="158.13" cy="51.21" rx="36.4" ry="18.65"/><path class="cls-5" d="M432.53,281.86a42.29,42.29,0,0,0-.35-5.15,36.08,36.08,0,0,0-1.07-5.2l-.92-.08c.09.69.2,1.38.26,2.07.11,1.26.2,2.53.25,3.79a49,49,0,0,1-.11,6.06c-.09,1.22-.2,2.45-.35,3.67s-.32,2.48-.53,3.72c-.16,1-.36,2-.58,2.94-.34,1.49-.66,3-1.07,4.47a86.53,86.53,0,0,1-3,9c-.44,1.12-.88,2.24-1.37,3.35-.27.6-.54,1.2-.82,1.8a8.61,8.61,0,0,1,1.43.21h.32c.3,0,.58,0,.85,0,.37-.84.73-1.68,1.07-2.52q1-2.52,1.87-5.05a75.06,75.06,0,0,0,2.36-8.36c.31-1.43.62-2.85.85-4.28.27-1.64.47-3.28.65-4.92A44.56,44.56,0,0,0,432.53,281.86Z" transform="translate(2 -118.65)"/><path class="cls-6" d="M430.28,271.44l-1.21-.14c-.05,1-.09,2-.18,3a56.93,56.93,0,0,1-.87,6.31c-.25,1.27-.52,2.54-.82,3.8s-.64,2.58-1,3.86c-.28,1-.61,2-1,3.05-.52,1.54-1,3.09-1.63,4.63-1.22,3.11-2.55,6.2-4.11,9.27-.58,1.15-1.17,2.3-1.8,3.45s-1.17,2.05-1.76,3.08l.51,0a10.3,10.3,0,0,1,1.15-.07,9.48,9.48,0,0,1,1.1.06c.66-1.18,1.3-2.35,1.91-3.54.88-1.73,1.72-3.46,2.51-5.21a87.14,87.14,0,0,0,3.43-8.64c.49-1.48,1-2.95,1.39-4.44.48-1.7.89-3.4,1.28-5.1a52,52,0,0,0,.94-5.74,48.64,48.64,0,0,0,.3-5.38C430.45,273,430.33,272.22,430.28,271.44Z" transform="translate(2 -118.65)"/><path class="cls-7" d="M422.94,271.82l.11-.37c-.5-.15-1-.31-1.52-.45a72.49,72.49,0,0,0-9.56-2l-.62-.1c-.3,0-.47-.14-.52-.31s.1-.29.32-.4a3.07,3.07,0,0,1,.36-.11c.34-.12.48-.29.41-.5s-.24-.32-.67-.34c-.6,0-1.2-.06-1.81-.09-2.3-.09-4.6-.17-6.9-.27-.88,0-1.75-.07-2.63-.12-.31,0-.55-.08-.64-.27s.07-.32.29-.44l.23-.1,1.4-.44.59-.22c.31-.14.38-.33.29-.53s-.39-.28-.75-.28h-2.88l-8.63,0h-3.7c-.33,0-.63,0-.76-.21s0-.41.33-.55c.6-.21,1.22-.4,1.83-.6l1.23-.4a1,1,0,0,0,.36-.22c.29-.3,0-.62-.59-.64s-1.06,0-1.59,0l-9.45.06h-.94a.91.91,0,0,1-.69-.18c-.13-.16-.06-.32.11-.47l.16-.09c.25-.18.37-.37.19-.58a1.16,1.16,0,0,0-.86-.2l-3.7,0c-2.58,0-5.17,0-7.75.07-.73,0-.89-.36-.58-.63a1.22,1.22,0,0,1,.53-.2c1.43-.33,2.85-.66,4.29-.95A106.34,106.34,0,0,1,380,256.94a87.79,87.79,0,0,1,9.32-.36,73.07,73.07,0,0,1,9.54.76,57.49,57.49,0,0,1,14.3,4,48,48,0,0,1,6.82,3.56,42.65,42.65,0,0,1,3.74,2.62c.66.51,1.26,1,1.89,1.58a.47.47,0,0,0,.45.15c.26-.05.29-.16.27-.29-.08-.77-.18-1.54-.23-2.3a22.08,22.08,0,0,1,.12-4,20.19,20.19,0,0,1,1.24-4.95,23.12,23.12,0,0,1,6.59-9.17,37.72,37.72,0,0,1,7.89-5.25,55.23,55.23,0,0,1,5.55-2.43c2.09-.8,4.28-1.51,6.54-2.14,2.59-.72,5.23-1.36,8-1.86a1.15,1.15,0,0,1,1,.15c.2.19.14.39-.23.59l-3.66,1.88-4.36,2.24c-.22.12-.45.22-.65.34-.49.31-.26.71.45.8l.17,0c.65.08.86.43.39.71s-.77.42-1.16.62l-7.63,4c-.4.21-.51.41-.34.61a1.28,1.28,0,0,0,1.1.24c1-.11,2-.21,2.94-.34.56-.08,1,.19.92.42s-.21.28-.39.39c-.48.28-1,.54-1.49.8l-7.36,3.94-2.15,1.15c-.22.11-.4.24-.38.42s.4.47.94.44c.37,0,.74-.07,1.1-.11l1.05-.11a.88.88,0,0,1,.76.24c.13.15.1.32-.12.45l-1.59,1-6.18,3.79c-.16.1-.31.24-.32.37,0,.35.34.51,1,.47s.94.1.94.41c0,.12-.13.25-.24.36-.83.77-1.7,1.54-2.49,2.32a24.23,24.23,0,0,0-2.84,3.36,2.46,2.46,0,0,0-.19.32,2.37,2.37,0,0,0,.34.13c.4.13.41.12.73-.08,1.33-.84,2.64-1.69,4-2.51a62.42,62.42,0,0,1,6.37-3.31c1.8-.82,3.65-1.59,5.6-2.29a76,76,0,0,1,15-3.69,77.67,77.67,0,0,1,9.79-.75,86.09,86.09,0,0,1,10.31.48A97.43,97.43,0,0,1,497,259.62c.5.12.63.23.58.45s-.37.41-.92.4l-2.7,0-7-.09-1.58,0a1.51,1.51,0,0,0-1,.23c-.23.22-.19.42.05.61s.23.36,0,.54a1.34,1.34,0,0,1-.79.18l-2.76,0-6.46,0-2.46,0a1.4,1.4,0,0,0-.89.19c-.34.27-.27.55.23.74l2.18.79a3.4,3.4,0,0,1,.34.12c.31.13.44.29.32.47a.8.8,0,0,1-.72.34h-1.82l-7.4,0h-6.34c-.45,0-.72.15-.82.36s0,.42.33.55l1.57.6c.26.09.38.21.36.37s-.3.4-.76.42l-3.75.16-7.56.31a1.17,1.17,0,0,0-.91.31c-.17.23-.07.44.32.59s.46.26.4.47-.37.31-.74.37c-2.18.31-4.35.63-6.45,1.08-1.8.4-3.58.83-5.36,1.25-.37.09-.37.11-.22.36l.5,0a73,73,0,0,1,11.27-.6,46.77,46.77,0,0,1,12.19,1.78,29.11,29.11,0,0,1,7.58,3.44,22.16,22.16,0,0,1,4.42,3.77,20.94,20.94,0,0,1,4,6.4c.32.82.59,1.65.89,2.47a.39.39,0,0,1-.15.5.7.7,0,0,1-.89,0c-.51-.41-1-.83-1.47-1.24L470,286l-1.07-.92a.77.77,0,0,0-.66-.26.8.8,0,0,0-.68.37c-.06.09-.08.19-.15.28a.72.72,0,0,1-.23.23.7.7,0,0,1-.84,0c-.21-.16-.41-.34-.61-.5l-4.68-3.88a1.09,1.09,0,0,0-.17-.13.9.9,0,0,0-1.13.05.57.57,0,0,0-.18.57c0,.5.11,1,.13,1.5a.6.6,0,0,1-.2.46.75.75,0,0,1-.91,0l-2.72-2.16-3-2.41L451.46,278a.86.86,0,0,0-1.19,0,.61.61,0,0,0-.18.43c0,.34.05.67.07,1a.43.43,0,0,1-.25.48.78.78,0,0,1-.9,0l-1.56-1.08-4.06-2.76a.82.82,0,0,0-.71-.23c-.37.08-.63.23-.69.46s0,.24,0,.36c-.11.4-.67.54-1.22.3a40.42,40.42,0,0,0-4-1.52c-.26-.09-.36-.19-.35-.37.07-.93-.57-1.68-1.85-2.26l-.4-.19c-.23-.1-.31-.22-.23-.4.63-1.43-.87-2.5-3.12-3a8.91,8.91,0,0,0-2.93-.19,5.85,5.85,0,0,0-2.95,1.14,3.57,3.57,0,0,0-1.38,1.87,1.49,1.49,0,0,0,.73,1.66c.76.55.42.48-.42.63a53.2,53.2,0,0,0-5.23,1.22c-1.6.45-3.12,1-4.59,1.53a1,1,0,0,1-.79.09c-.29-.12-.37-.29-.27-.49a.37.37,0,0,0-.05-.47.78.78,0,0,0-1-.1l-3.13,1.72-4,2.21a.8.8,0,0,1-.67.12c-.26-.06-.34-.2-.34-.35a1,1,0,0,1,.08-.32c.14-.33.31-.65.42-1a.47.47,0,0,0-.06-.44.78.78,0,0,0-1-.08c-.32.18-.61.38-.91.57L394,283.79a.72.72,0,0,1-.68.18c-.3-.07-.46-.23-.37-.45.22-.54.48-1.06.7-1.6a.77.77,0,0,0,.08-.57c-.14-.35-.67-.41-1.11-.12l-6.12,3.91-.85.55a.9.9,0,0,1-.66.16c-.28-.06-.36-.19-.4-.33a.65.65,0,0,1,0-.19c0-.19-.15-.34-.48-.41a1,1,0,0,0-.8.2l-6.54,4.32,0,0a.72.72,0,0,1-.67.19c-.27-.06-.45-.23-.42-.42a.64.64,0,0,1,.08-.19,37.41,37.41,0,0,1,6.74-7.86,36.32,36.32,0,0,1,7.41-5.05,39.59,39.59,0,0,1,6.9-2.79,49,49,0,0,1,7.64-1.67,63.14,63.14,0,0,1,10.92-.5c2.36.09,4.69.3,7,.59C422.49,271.79,422.7,271.8,422.94,271.82Z" transform="translate(2 -118.65)"/><text class="cls-8" transform="translate(134.65 110.98) scale(1.95 1)">Pulau<tspan x="30.83" y="56.96">Kuy</tspan></text></g></svg>