<svg id="Layer_1" data-name="Layer 1" xmlns="http://www.w3.org/2000/svg" xmlns:xlink="http://www.w3.org/1999/xlink" viewBox="0 0 402.7 128.9"><defs><style>.cls-1{fill:#231f20;}.cls-2,.cls-3,.cls-4{stroke:#231f20;stroke-miterlimit:10;}.cls-2{fill:url(#radial-gradient);}.cls-3{font-size:88.83px;fill:#fff;font-family:AudacityScriptDEMO, Audacity Script DEMO;letter-spacing:0.05em;}.cls-4{fill:#009444;stroke-width:0.5px;}</style><radialGradient id="radial-gradient" cx="149.18" cy="193.42" r="36.4" gradientTransform="translate(-77.97 -119.51) scale(0.92 0.92)" gradientUnits="userSpaceOnUse"><stop offset="0.09" stop-color="#f7941d"/><stop offset="0.27" stop-color="#f7971e"/><stop offset="0.37" stop-color="#f79b1f"/><stop offset="1" stop-color="#f9ed32"/></radialGradient></defs><g id="Layer_3" data-name="Layer 3"><path class="cls-1" d="M171.94,84.27c-.59,3-.06,3.73-1.47,5.6s-.51-5.13-1.29-8.37c-.85-3.56-1.4-5.69,2.83-5.08C176,77,172.77,80.17,171.94,84.27Z" transform="translate(-111.19 -76.32)"/><path class="cls-1" d="M148.27,87.83c.42,3,1.18,3.55.47,5.77s-2.19-4.66-4-7.46c-2-3.08-3.21-4.9,1-5.74C149.69,79.61,147.69,83.69,148.27,87.83Z" transform="translate(-111.19 -76.32)"/><path class="cls-1" d="M194.93,89.13c-1.32,2.73-1,3.6-2.81,5.06s.76-5.09.81-8.43c0-3.66,0-5.85,4-4.22C200.66,83.08,196.74,85.36,194.93,89.13Z" transform="translate(-111.19 -76.32)"/><path class="cls-1" d="M130.08,100.44c1.7,2.51,2.62,2.66,3,5s-4-3.22-6.87-4.94c-3.14-1.89-5-3-1.64-5.58C127.74,92.43,127.74,97,130.08,100.44Z" transform="translate(-111.19 -76.32)"/><path class="cls-1" d="M214.41,104.17c-2.43,1.81-2.54,2.73-4.84,3.17s3.05-4.15,4.64-7.08c1.75-3.21,2.76-5.16,5.5-1.88C222.31,101.48,217.77,101.68,214.41,104.17Z" transform="translate(-111.19 -76.32)"/><path class="cls-1" d="M119.61,118.92c2.7,1.35,3.58,1,5,2.89s-5.08-.85-8.41-1c-3.66-.12-5.86-.14-4.16-4.07C113.65,113.08,115.87,117,119.61,118.92Z" transform="translate(-111.19 -76.32)"/><path class="cls-1" d="M118.83,140.42c3-.19,3.63-.91,5.79,0s-4.82,1.82-7.75,3.4c-3.22,1.74-5.13,2.82-5.64-1.42C110.75,138.37,114.66,140.67,118.83,140.42Z" transform="translate(-111.19 -76.32)"/><path class="cls-1" d="M127.63,161.06c2.65-1.48,2.88-2.38,5.21-2.52s-3.56,3.72-5.52,6.42c-2.15,3-3.41,4.76-5.7,1.14C119.45,162.69,124,163.09,127.63,161.06Z" transform="translate(-111.19 -76.32)"/><circle class="cls-2" cx="59.08" cy="58.18" r="33.44"/></g><text class="cls-3" transform="translate(39.94 111.61) scale(0.94 1)">PulauKuy</text><path class="cls-4" d="M440.2,144l.26-.29c-.41-.34-.81-.68-1.23-1a72.65,72.65,0,0,0-8-5.56l-.53-.33c-.26-.15-.37-.31-.35-.48s.2-.24.44-.25a2.53,2.53,0,0,1,.38,0c.36,0,.56-.07.57-.3s-.1-.38-.48-.57c-.54-.27-1.09-.52-1.63-.78l-6.26-2.93L421,130.35c-.28-.14-.48-.29-.49-.5s.19-.27.43-.3a1.15,1.15,0,0,1,.26,0l1.46.13a4.42,4.42,0,0,0,.63,0c.34,0,.48-.15.48-.37s-.25-.41-.59-.55l-2.65-1.13-7.94-3.37-3.41-1.44c-.31-.13-.57-.26-.62-.49s.13-.39.51-.37c.64,0,1.29.1,1.93.15.43,0,.87.09,1.29.11a1,1,0,0,0,.41-.06c.39-.16.25-.56-.3-.82s-1-.42-1.45-.62l-8.74-3.62-.86-.36c-.26-.11-.51-.24-.57-.44s.07-.31.28-.38a1.13,1.13,0,0,1,.18,0c.3-.07.49-.19.4-.46s-.39-.39-.71-.52l-3.42-1.4c-2.39-1-4.78-2-7.17-2.94-.67-.28-.68-.68-.28-.81a1.2,1.2,0,0,1,.56,0c1.44.25,2.88.5,4.32.79a106.11,106.11,0,0,1,11.5,3,86.74,86.74,0,0,1,8.73,3.29,71.61,71.61,0,0,1,8.49,4.4,57.44,57.44,0,0,1,11.64,9.2,48.36,48.36,0,0,1,4.9,5.93,45.68,45.68,0,0,1,2.43,3.87c.41.73.76,1.46,1.13,2.19a.43.43,0,0,0,.35.31c.26.06.33,0,.37-.16.21-.74.42-1.48.68-2.21a22.16,22.16,0,0,1,1.65-3.61,20.64,20.64,0,0,1,3.07-4.09,23.21,23.21,0,0,1,9.63-5.89,38.28,38.28,0,0,1,9.32-1.76,55,55,0,0,1,6-.09q3.36.12,6.86.57c2.66.35,5.35.79,8.07,1.39.49.11.77.28.89.54s0,.41-.44.45l-4.11.31-4.89.37c-.24,0-.49,0-.72.07-.58.09-.52.55.09.9l.16.09c.57.33.62.73.08.81s-.87.08-1.3.12l-8.58.69c-.45,0-.63.17-.55.42s.39.5.92.66c.94.28,1.89.56,2.84.82.55.15.81.55.68.75a.78.78,0,0,1-.51.2c-.55.08-1.12.12-1.68.17l-8.32.76-2.41.23c-.26,0-.47.07-.52.24s.18.59.69.77c.35.12.71.22,1.06.33s.67.19,1,.3a.86.86,0,0,1,.61.51c.06.2,0,.34-.28.38l-1.85.28-7.17,1.09a.63.63,0,0,0-.43.22c-.18.3.11.6.74.82s.83.46.71.75a.6.6,0,0,1-.36.23c-1.06.39-2.16.76-3.2,1.17a25.23,25.23,0,0,0-3.92,2c-.11.07-.19.14-.3.22l.26.26c.32.27.34.27.7.21,1.56-.25,3.1-.53,4.69-.76a64.9,64.9,0,0,1,7.16-.57c2-.05,4,0,6.05.07a75.94,75.94,0,0,1,15.25,2.43,78.81,78.81,0,0,1,9.31,3.11,85.67,85.67,0,0,1,9.31,4.46,97,97,0,0,1,11.8,7.76c.4.31.48.46.35.64s-.49.23-1,0l-2.48-1.08-6.4-2.79-1.45-.63a1.45,1.45,0,0,0-1-.2c-.3.11-.34.31-.19.58s.07.43-.22.5a1.32,1.32,0,0,1-.8-.15l-2.54-1.09-5.93-2.54-2.27-1a1.4,1.4,0,0,0-.89-.17c-.41.12-.46.4-.08.77L490,156l.27.25c.23.24.28.44.11.56a.81.81,0,0,1-.8,0l-1.68-.7-6.83-2.85L475.71,151l-.49-.19c-.42-.15-.72-.15-.9,0s-.16.38.09.63l1.22,1.17c.2.18.27.34.19.48s-.44.25-.86.09l-3.52-1.31-7.09-2.65a1.12,1.12,0,0,0-1-.07c-.25.15-.24.38.06.67s.32.42.18.58-.46.15-.83,0c-2.12-.55-4.25-1.11-6.36-1.5-1.81-.34-3.61-.63-5.42-.94-.38-.06-.38,0-.35.25.16.05.32.11.48.15a75.21,75.21,0,0,1,10.62,3.83,47,47,0,0,1,10.54,6.39,28.47,28.47,0,0,1,5.64,6.11,21.78,21.78,0,0,1,2.61,5.19,20.82,20.82,0,0,1,1.19,7.45c0,.88-.09,1.75-.14,2.62a.4.4,0,0,1-.33.41.7.7,0,0,1-.83-.33c-.31-.57-.59-1.14-.88-1.71l-1.52-3.08c-.21-.42-.41-.84-.63-1.26a.75.75,0,0,0-.5-.5.78.78,0,0,0-.77.08c-.09.06-.15.14-.25.2a.67.67,0,0,1-.3.11.7.7,0,0,1-.76-.35l-.37-.71-2.8-5.39a1.62,1.62,0,0,0-.1-.18.91.91,0,0,0-1.07-.4.6.6,0,0,0-.38.46c-.16.48-.29,1-.46,1.43a.63.63,0,0,1-.37.34.75.75,0,0,1-.85-.34c-.56-1-1.11-2-1.66-3.05L465,162.38l-.88-1.64a.85.85,0,0,0-1.1-.43.61.61,0,0,0-.34.33c-.14.3-.22.64-.33,1a.45.45,0,0,1-.42.35.77.77,0,0,1-.82-.35c-.35-.53-.68-1.07-1-1.6l-2.67-4.13a.82.82,0,0,0-.57-.47.78.78,0,0,0-.81.14c-.08.1-.1.22-.18.32-.26.32-.83.24-1.24-.2a40.07,40.07,0,0,0-3.11-3c-.21-.18-.26-.31-.18-.47.42-.83.13-1.77-.83-2.81-.1-.11-.19-.22-.29-.32s-.2-.34-.06-.46c1.13-1.08.17-2.65-1.71-4a9,9,0,0,0-2.62-1.32,5.75,5.75,0,0,0-3.17-.09,3.53,3.53,0,0,0-2,1.19,1.48,1.48,0,0,0,0,1.8c.49.8.21.61-.62.42a53.06,53.06,0,0,0-5.31-.9,47.35,47.35,0,0,0-4.81-.38,1,1,0,0,1-.77-.22c-.22-.23-.22-.42-.05-.56a.37.37,0,0,0,.13-.46.78.78,0,0,0-.9-.48l-3.55.37-4.55.48a.83.83,0,0,1-.66-.15c-.21-.16-.23-.32-.17-.45a.83.83,0,0,1,.19-.27c.25-.25.54-.48.77-.74a.49.49,0,0,0,.12-.43.77.77,0,0,0-.88-.47c-.37,0-.71.11-1.06.17l-9.62,1.59a.77.77,0,0,1-.7-.1c-.24-.18-.34-.4-.16-.57.4-.41.86-.79,1.26-1.19a.83.83,0,0,0,.3-.5c0-.39-.46-.64-1-.55l-7.15,1.23-1,.17a.85.85,0,0,1-.67-.11.46.46,0,0,1-.25-.46,1.8,1.8,0,0,1,.05-.19.53.53,0,0,0-.29-.56,1,1,0,0,0-.81-.12l-7.71,1.43h-.05a.77.77,0,0,1-.69-.09c-.23-.16-.32-.39-.22-.55a.53.53,0,0,1,.15-.15,37.8,37.8,0,0,1,9.26-4.62,36.59,36.59,0,0,1,8.79-1.77,39.64,39.64,0,0,1,7.44.11,47.79,47.79,0,0,1,7.69,1.44,62.53,62.53,0,0,1,10.26,3.77c2.14,1,4.2,2.1,6.21,3.27Z" transform="translate(-111.19 -76.32)"/></svg>